<?xml version="1.0" encoding="utf-8"?>
<!-- Generator: Adobe Illustrator 16.0.0, SVG Export Plug-In . SVG Version: 6.00 Build 0)  -->
<!DOCTYPE svg PUBLIC "-//W3C//DTD SVG 1.1//EN" "http://www.w3.org/Graphics/SVG/1.1/DTD/svg11.dtd">
<svg version="1.1" id="Layer_1" xmlns="http://www.w3.org/2000/svg" xmlns:xlink="http://www.w3.org/1999/xlink" x="0px" y="0px"
	 width="250px" height="250px" viewBox="0 0 250 250" enable-background="new 0 0 250 250" xml:space="preserve">
<path fill="#0071BC" stroke="#000000" stroke-miterlimit="10" d="M107,25.5h35c0,0-7.111,15-6.689,22c-8.018,0-20.311,0-20.311,0
	S111.179,30.999,107,25.5z"/>
<path fill="#0071BC" stroke="#000000" stroke-miterlimit="10" d="M115,50.5h20c0,0,15.922,67.814,16.766,153.468
	c-14.768,13.501-24.895,22.362-24.895,22.362l-23.628-20.676C103.243,205.654,102.707,111.8,115,50.5z"/>
<path fill="#0071BC" stroke="#000000" stroke-miterlimit="10" d="M145.015,23.376c0,0-0.966,8.438-3.015,11.392
	c10.188-2.109,41.834-13.081,45.631-18.144C179.614,17.469,152.188,25.486,145.015,23.376z"/>
<path fill="#0071BC" stroke="#000000" stroke-miterlimit="10" d="M68.222,9.874c0,0,24.466,13.502,35.018,13.502
	c0.003,5.063,0,8.017,0,8.017S72.02,19.748,68.222,9.874z"/>
</svg>
