<?xml version="1.0" encoding="utf-8"?>
<!-- Generator: Adobe Illustrator 16.0.0, SVG Export Plug-In . SVG Version: 6.00 Build 0)  -->
<!DOCTYPE svg PUBLIC "-//W3C//DTD SVG 1.1//EN" "http://www.w3.org/Graphics/SVG/1.1/DTD/svg11.dtd">
<svg version="1.1" id="Layer_1" xmlns="http://www.w3.org/2000/svg" xmlns:xlink="http://www.w3.org/1999/xlink" x="0px" y="0px"
	 width="250px" height="250px" viewBox="0 0 250 250" enable-background="new 0 0 250 250" xml:space="preserve">
<path fill="#0071BC" stroke="#000000" stroke-miterlimit="10" d="M78.36,56.655c0,4.655-3.774,8.43-8.43,8.43l0,0
	c-4.655,0-8.43-3.774-8.43-8.43V33.93c0-4.655,3.774-8.43,8.43-8.43l0,0c4.656,0,8.43,3.774,8.43,8.43V56.655z"/>
<path fill="#0071BC" stroke="#000000" stroke-miterlimit="10" d="M133.43,56.655c0,4.655-3.772,8.43-8.43,8.43l0,0
	c-4.655,0-8.43-3.774-8.43-8.43V33.93c0-4.655,3.774-8.43,8.43-8.43l0,0c4.656,0,8.43,3.774,8.43,8.43V56.655z"/>
<path fill="#0071BC" stroke="#000000" stroke-miterlimit="10" d="M189.297,55.23c0,4.655-3.773,8.43-8.43,8.43l0,0
	c-4.656,0-8.43-3.774-8.43-8.43V32.505c0-4.655,3.772-8.43,8.43-8.43l0,0c4.654,0,8.43,3.774,8.43,8.43V55.23z"/>
<path fill="#0071BC" stroke="#000000" stroke-miterlimit="10" d="M215.536,192.5c0,0-1.036-56-0.036-110s-19-40-19-40
	s3,28-17,26.219c-20-1.781-14-26.219-14-26.219h-25c0,0,4,26-15.5,26.218C105.5,68.936,107.5,42.5,107.5,42.5h-23c0,0,1,29-17,26
	s-14-26-14-26c-25,0-20,23-20,23s0,66,0,111s19.621,36,19.621,36s114.379,0,140.379,0S215.536,192.5,215.536,192.5z M196.5,192.5
	h-145v-109h145V192.5z"/>
</svg>
