<?xml version="1.0" encoding="utf-8"?>
<!-- Generator: Adobe Illustrator 16.0.0, SVG Export Plug-In . SVG Version: 6.00 Build 0)  -->
<!DOCTYPE svg PUBLIC "-//W3C//DTD SVG 1.1//EN" "http://www.w3.org/Graphics/SVG/1.1/DTD/svg11.dtd">
<svg version="1.1" id="Layer_1" xmlns="http://www.w3.org/2000/svg" xmlns:xlink="http://www.w3.org/1999/xlink" x="0px" y="0px"
	 width="250px" height="250px" viewBox="0 0 250 250" enable-background="new 0 0 250 250" xml:space="preserve">
<path fill="#0071BC" stroke="#000000" stroke-miterlimit="10" d="M160.627,24.642l53.586,56.118c0,0,26.16-17.721,11.393-44.304
	C205.774,15.359,192.694-7.426,167.8,17.047C164.846,19.579,160.627,24.642,160.627,24.642z"/>
<polygon fill="#0071BC" stroke="#000000" stroke-miterlimit="10" points="151.766,33.502 160.627,43.606 57.251,148.692 
	50.5,140.676 "/>
<polygon fill="#0071BC" stroke="#000000" stroke-miterlimit="10" points="169.487,53.333 187.209,71.055 80.458,180.76 
	63.158,163.46 "/>
<polygon fill="#0071BC" stroke="#000000" stroke-miterlimit="10" points="195.375,80.76 205.774,91.098 102.821,197.216 
	93.116,188.354 "/>
<path fill="#0071BC" stroke="#000000" stroke-miterlimit="10" d="M43.749,155.865c0,0,8.86,6.329,10.548,6.329
	c-0.422,6.751,0.844,28.271,29.536,30.38c0.844,6.329,4.219,11.393,5.907,11.814c-13.924,2.953-61.787,15.188-61.787,15.188
	l14.951-63.712"/>
</svg>
