<?xml version="1.0" encoding="utf-8"?>
<!-- Generator: Adobe Illustrator 16.0.0, SVG Export Plug-In . SVG Version: 6.00 Build 0)  -->
<!DOCTYPE svg PUBLIC "-//W3C//DTD SVG 1.1//EN" "http://www.w3.org/Graphics/SVG/1.1/DTD/svg11.dtd">
<svg version="1.1" id="Layer_1" xmlns="http://www.w3.org/2000/svg" xmlns:xlink="http://www.w3.org/1999/xlink" x="0px" y="0px"
	 width="250px" height="250px" viewBox="0 0 250 250" enable-background="new 0 0 250 250" xml:space="preserve">
<g>
	<path fill="#0071BC" stroke="#000000" stroke-width="0.75" stroke-miterlimit="10" d="M165.988,30.774
		c-1.762-0.881-4.721,0-4.721,0l-62.232,18.72c0,0,62.107,32.375,63.554,33.036c1.446,0.661,3.619,0,3.619,0l58.804-25.547
		C225.012,56.983,167.75,31.656,165.988,30.774z"/>
	<path fill="#0071BC" stroke="#000000" stroke-width="0.75" stroke-miterlimit="10" d="M210.475,93.983c0,0,2.863-2.202,2.863-4.185
		s-1.101-2.643-1.432-3.303c-0.33-0.661,4.734-13.282,1.872-19.636c-1.101-1.508-1.872-4.184-1.872-4.184l-5.065,2.202
		c0,0,4.846,7.962,4.24,13.909c-0.606,5.947-3.91,6.2-4.24,8.716c-0.33,2.516,0.772,5.82-1.431,10.225
		c1.762,5.065-1.982,4.625,0,10.792s3.084,3.743,3.084,3.743s1.981,0.662,6.826-2.202c-2.203-4.624-3.304-6.827-5.065-12.333
		C209.595,95.745,210.475,93.983,210.475,93.983z"/>
</g>
<path fill="#0071BC" stroke="#000000" stroke-width="0.75" stroke-miterlimit="10" d="M127.666,68.655l34.923,17.84
	c0,0,1.636,0.661,3.839,0c2.202-0.661,31.054-13.875,31.054-13.875s3.522,14.756,0,21.363c-3.524,6.607-37.221,8.148-37.44,13.875
	c-0.221,5.727-28.852-22.243-35.899-22.023C125.904,77.465,123.481,77.905,127.666,68.655z"/>
<g>
	<path fill="#0071BC" stroke="#000000" stroke-width="0.75" stroke-miterlimit="10" d="M73.953,89.035c-1.762-0.881-4.721,0-4.721,0
		L7,107.755c0,0,62.107,32.375,63.554,33.036c1.446,0.66,3.619,0,3.619,0l58.804-25.547
		C132.977,115.244,75.715,89.917,73.953,89.035z"/>
	<path fill="#0071BC" stroke="#000000" stroke-width="0.75" stroke-miterlimit="10" d="M118.439,152.244
		c0,0,2.863-2.203,2.863-4.186s-1.101-2.643-1.432-3.303c-0.33-0.66,4.734-13.281,1.872-19.635
		c-1.101-1.508-1.872-4.184-1.872-4.184l-5.065,2.201c0,0,4.846,7.963,4.24,13.909c-0.606,5.947-3.91,6.199-4.24,8.717
		c-0.33,2.516,0.772,5.82-1.431,10.225c1.762,5.064-1.982,4.625,0,10.791c1.982,6.168,3.084,3.744,3.084,3.744
		s1.981,0.662,6.826-2.203c-2.203-4.623-3.304-6.826-5.065-12.332C117.56,154.006,118.439,152.244,118.439,152.244z"/>
</g>
<path fill="#0071BC" stroke="#000000" stroke-width="0.75" stroke-miterlimit="10" d="M35.631,126.916l34.923,17.84
	c0,0,1.636,0.66,3.839,0c2.202-0.66,31.054-13.875,31.054-13.875s3.522,14.756,0,21.363c-3.524,6.607-37.221,8.148-37.44,13.875
	c-0.22,5.727-28.851-22.244-35.899-22.023C33.869,135.727,31.446,136.166,35.631,126.916z"/>
<g>
	<path fill="#0071BC" stroke="#000000" stroke-width="0.75" stroke-miterlimit="10" d="M190.666,137.151
		c-1.762-0.881-4.721,0-4.721,0l-62.232,18.72c0,0,62.107,32.376,63.554,33.036c1.446,0.661,3.619,0,3.619,0l58.804-25.547
		C249.689,163.36,192.428,138.033,190.666,137.151z"/>
	<path fill="#0071BC" stroke="#000000" stroke-width="0.75" stroke-miterlimit="10" d="M235.152,200.36c0,0,2.863-2.202,2.863-4.185
		s-1.101-2.643-1.432-3.304c-0.33-0.66,4.734-13.281,1.872-19.635c-1.101-1.508-1.872-4.184-1.872-4.184l-5.065,2.201
		c0,0,4.846,7.963,4.24,13.908c-0.606,5.947-3.91,6.2-4.24,8.717c-0.33,2.516,0.772,5.82-1.431,10.225
		c1.762,5.065-1.982,4.625,0,10.792s3.084,3.743,3.084,3.743s1.981,0.662,6.826-2.202c-2.203-4.624-3.304-6.827-5.065-12.333
		C234.272,202.122,235.152,200.36,235.152,200.36z"/>
</g>
<path fill="#0071BC" stroke="#000000" stroke-width="0.75" stroke-miterlimit="10" d="M152.344,175.032l34.923,17.84
	c0,0,1.636,0.661,3.839,0c2.202-0.66,31.054-13.875,31.054-13.875s3.522,14.757,0,21.363c-3.524,6.607-37.221,8.148-37.44,13.875
	c-0.221,5.727-28.852-22.243-35.898-22.023C150.582,183.843,148.159,184.282,152.344,175.032z"/>
</svg>
