<?xml version="1.0" encoding="utf-8"?>
<!-- Generator: Adobe Illustrator 16.0.0, SVG Export Plug-In . SVG Version: 6.00 Build 0)  -->
<!DOCTYPE svg PUBLIC "-//W3C//DTD SVG 1.1//EN" "http://www.w3.org/Graphics/SVG/1.1/DTD/svg11.dtd">
<svg version="1.1" id="Layer_1" xmlns="http://www.w3.org/2000/svg" xmlns:xlink="http://www.w3.org/1999/xlink" x="0px" y="0px"
	 width="250px" height="250px" viewBox="0 0 250 250" enable-background="new 0 0 250 250" xml:space="preserve">
<path fill="#0071BC" stroke="#000000" stroke-miterlimit="10" d="M232.356,74.009l14.346-10.126L243,52.5h-18.66l-5.907-8.426
	l5.907-17.745L214.213,20l-14.346,10.476l-12.379-4.569L184,8.5h-14.513l-4.641,17.779l-10.971,3.397L139.952,19.1l-12.235,7.117
	l7.597,17.187l-7.593,8.634l-18.571-0.813l-2.954,13.502l14.346,9.283l-0.422,11.393l-13.924,9.283l3.797,12.236l17.723,0.422
	l6.327,8.017l-6.327,17.299l11.813,6.751l13.08-9.704l13.502,2.953L169,149.5h13.989l4.499-16.648l11.113-3.568l14.346,10.971
	l10.549-7.174l-5.063-17.299L225,106.5h17.905l3.797-12.448l-14.768-9.073L232.356,74.009z M176.449,122.532
	c-24.042,0-43.531-19.49-43.531-43.532s19.489-43.532,43.531-43.532S219.98,54.958,219.98,79S200.491,122.532,176.449,122.532z"/>
<path fill="#0071BC" stroke="#000000" stroke-miterlimit="10" d="M134.045,165.992l14.346-10.119l-3.703-11.373h-18.66l-5.907-8.434
	l5.907-17.749l-10.126-6.332l-14.346,10.475L89.176,117.9l-3.488-17.4H71.175l-4.641,17.771l-10.971,3.393L41.64,111.085
	l-12.235,7.116l7.597,17.187l-7.593,8.634l-18.571-0.814l-2.954,13.502l14.346,9.283l-0.422,11.393l-13.924,9.283l3.797,12.235
	l17.723,0.423l6.327,8.016l-6.327,17.3l11.813,6.751l13.08-9.704l13.502,2.962l2.889,16.85h13.989l4.499-16.656l11.113-3.573
	l14.346,10.969l10.549-7.175l-5.063-17.292l6.567-9.272h17.906l3.797-12.457l-14.768-9.076L134.045,165.992z M78.137,214.516
	c-24.042,0-43.531-19.49-43.531-43.532s19.489-43.532,43.531-43.532s43.531,19.49,43.531,43.532S102.179,214.516,78.137,214.516z"/>
</svg>
