<?xml version="1.0" encoding="utf-8"?>
<!-- Generator: Adobe Illustrator 16.0.0, SVG Export Plug-In . SVG Version: 6.00 Build 0)  -->
<!DOCTYPE svg PUBLIC "-//W3C//DTD SVG 1.1//EN" "http://www.w3.org/Graphics/SVG/1.1/DTD/svg11.dtd">
<svg version="1.1" id="Layer_1" xmlns="http://www.w3.org/2000/svg" xmlns:xlink="http://www.w3.org/1999/xlink" x="0px" y="0px"
	 width="250px" height="250px" viewBox="0 0 250 250" enable-background="new 0 0 250 250" xml:space="preserve">
<g>
	<path fill="#0071BC" stroke="#000000" stroke-width="0.75" stroke-miterlimit="10" d="M131.511,55.867
		c-3.375-1.688-9.043,0-9.043,0L3.241,91.731c0,0,118.987,62.025,121.759,63.291c2.771,1.266,6.933,0,6.933,0l112.658-48.945
		C244.591,106.078,134.886,57.555,131.511,55.867z"/>
	<path fill="#0071BC" stroke="#000000" stroke-width="0.75" stroke-miterlimit="10" d="M216.742,176.964
		c0,0,5.485-4.219,5.485-8.017s-2.109-5.063-2.742-6.329s9.07-25.446,3.586-37.618c-2.109-2.889-3.586-8.015-3.586-8.015
		l-9.706,4.217c0,0,9.283,15.255,8.123,26.648s-7.491,11.877-8.123,16.698s1.479,11.15-2.741,19.589
		c3.375,9.705-3.798,8.86,0,20.675s5.907,7.173,5.907,7.173s3.798,1.267,13.08-4.219c-4.22-8.861-6.33-13.08-9.705-23.629
		C215.055,180.339,216.742,176.964,216.742,176.964z"/>
</g>
<path fill="#0071BC" stroke="#000000" stroke-width="0.75" stroke-miterlimit="10" d="M58.093,128.44L125,162.618
	c0,0,3.135,1.266,7.354,0s59.493-26.582,59.493-26.582s6.751,28.27,0,40.928s-71.308,15.611-71.729,26.582
	s-55.274-42.615-68.776-42.193C54.717,145.318,50.076,146.162,58.093,128.44z"/>
</svg>
